<svg width="20" height="20" viewBox="0 0 20 20" fill="none" xmlns="http://www.w3.org/2000/svg">
<path id="Search ico" d="M14.6094 12.1875C15.3906 10.9583 15.849 9.5 15.849 7.93229C15.849 3.55208 12.3021 0 7.92708 0C3.54687 0 0 3.55208 0 7.93229C0 12.3125 3.54688 15.8646 7.92188 15.8646C9.51042 15.8646 10.9896 15.3958 12.2292 14.5938L12.5885 14.3437L18.2448 20L20 18.2135L14.349 12.5573L14.6094 12.1875ZM12.3646 3.5C13.5469 4.68229 14.1979 6.25521 14.1979 7.92708C14.1979 9.59896 13.5469 11.1719 12.3646 12.3542C11.1823 13.5365 9.60937 14.1875 7.9375 14.1875C6.26562 14.1875 4.69271 13.5365 3.51042 12.3542C2.32812 11.1719 1.67708 9.59896 1.67708 7.92708C1.67708 6.25521 2.32812 4.68229 3.51042 3.5C4.69271 2.31771 6.26562 1.66667 7.9375 1.66667C9.60937 1.66667 11.1823 2.31771 12.3646 3.5Z" fill="#333333"/>
</svg>
